<svg xmlns="http://www.w3.org/2000/svg" viewBox="0 0 771.82 339.09"><defs><style>.cls-1{fill:#fff;}</style></defs><g id="Capa_5" data-name="Capa 5"><path class="cls-1" d="M834.78,385.1a7.59,7.59,0,0,0-10.33.9l-1.08,1.14L822.26,386a7.58,7.58,0,0,0-10.35-.6,8,8,0,0,0-.38,11.53l10.88,10.91a1.74,1.74,0,0,0,2.51,0l10.56-11.23a8,8,0,0,0-.7-11.51Z" transform="translate(-87.45 -325.69)"/><path class="cls-1" d="M848.24,419.48a7.57,7.57,0,0,0-.9-10.33l-1.14-1.08,1.11-1.11a7.57,7.57,0,0,0,.61-10.35,8,8,0,0,0-11.53-.38l-10.92,10.88a1.74,1.74,0,0,0,0,2.51l11.22,10.56a8,8,0,0,0,11.51-.7Z" transform="translate(-87.45 -325.69)"/><path class="cls-1" d="M799.46,420.17a8,8,0,0,0,11.53.38l10.92-10.88a1.75,1.75,0,0,0,0-2.51L810.64,396.6a8,8,0,0,0-11.51.71,7.59,7.59,0,0,0,.9,10.33l1.14,1.07-1.11,1.11a7.58,7.58,0,0,0-.6,10.35Z" transform="translate(-87.45 -325.69)"/><path class="cls-1" d="M812.57,431.68a7.57,7.57,0,0,0,10.33-.9l1.08-1.14,1.1,1.11a7.59,7.59,0,0,0,10.36.61,8,8,0,0,0,.38-11.53l-10.88-10.92a1.74,1.74,0,0,0-2.51,0l-10.57,11.22a8,8,0,0,0,.71,11.51Z" transform="translate(-87.45 -325.69)"/><path class="cls-1" d="M824.1,510l-21.29,18.43.47,19.31a1.88,1.88,0,0,0,1.93,1.84l13.21-.35a1.89,1.89,0,0,0,1.83-1.94L820,536a1.89,1.89,0,0,1,1.84-1.93l7.55-.18a1.89,1.89,0,0,1,1.93,1.84l.28,11.27a1.89,1.89,0,0,0,1.92,1.85h0l13.2-.29a1.89,1.89,0,0,0,1.84-1.93l-.47-19.33L825.91,510a1.44,1.44,0,0,0-1.81.05Zm34.63,11.32-10.06-7.88-.4-16.33a1.41,1.41,0,0,0-1.44-1.38l-6.6.17a1.4,1.4,0,0,0-1.38,1.45l.2,8.55-10.76-8.42a5.66,5.66,0,0,0-7.19.18L791.86,523a1.41,1.41,0,0,0-.14,2h0l3.1,3.58a1.4,1.4,0,0,0,2,.15h0L824,505.17a1.46,1.46,0,0,1,1.81,0l28.28,22.16a1.42,1.42,0,0,0,2-.24h0l2.92-3.73a1.41,1.41,0,0,0-.25-2Z" transform="translate(-87.45 -325.69)"/><path class="cls-1" d="M461.55,495c-3.78.24-6.42-.34-7.9-1.74s-2.32-3.64-2.51-6.73c-.07-1.08-.12-2.81-.14-5.22s0-6.15.15-11.23c-.56-.92-1-1.71-1.47-2.38s-.85-1.37-1.28-2.11S447.51,464,447,463s-1.16-2.21-1.95-3.68q-1.83-3.4-4.15-7.92l-4.49-8.7c-1.44-2.8-2.66-5.27-3.65-7.43a17.54,17.54,0,0,1-1.54-4.08q-.12-2,6.22-2.39a20.59,20.59,0,0,1,6.45.41,10.88,10.88,0,0,1,4.06,1.93,8.9,8.9,0,0,1,2.48,3.08c.58,1.2,1.13,2.48,1.66,3.84.68,1.79,1.18,3.12,1.49,4s.56,1.58.75,2.14.4,1.1.62,1.63.55,1.34,1,2.46,1,2.66,1.76,4.64,1.81,4.7,3.17,8.17q2.38-6,3.82-9.65c.95-2.47,1.78-4.76,2.47-6.86s1.33-4.27,1.92-6.49,1.35-5,2.28-8.46a5.32,5.32,0,0,1,1-2.4,3,3,0,0,1,1.91-.64c.31,0,1.18,0,2.61,0a26.79,26.79,0,0,1,4.5.43,13.81,13.81,0,0,1,4.32,1.54,3.76,3.76,0,0,1,2.1,3.2,14.26,14.26,0,0,1-.8,4.61c-.61,2-1.42,4.26-2.43,6.76s-2.21,5.16-3.59,8-2.81,5.56-4.29,8.25-3,5.18-4.43,7.46a56.89,56.89,0,0,1-4.06,5.62c0,1.52.06,3.33.1,5.42s0,4.16,0,6.22-.05,3.94-.07,5.62-.05,2.84-.07,3.47a2.17,2.17,0,0,1-.31,1.12,1.53,1.53,0,0,1-1.12.4Z" transform="translate(-87.45 -325.69)"/><path class="cls-1" d="M521.09,492.21a27.41,27.41,0,0,1-11-1.17,17.26,17.26,0,0,1-7.19-4.63,19.28,19.28,0,0,1-4.06-7.31,38.67,38.67,0,0,1-1.62-9.17,45.68,45.68,0,0,1,.67-11.21,25.91,25.91,0,0,1,4.09-10,23.86,23.86,0,0,1,8.33-7.41,31.5,31.5,0,0,1,13.42-3.46q11.94-.74,17.46,4.76t6.18,16a52.66,52.66,0,0,1,0,6.52,34.19,34.19,0,0,1-1.17,7.15,33.13,33.13,0,0,1-2.79,7,23.55,23.55,0,0,1-4.79,6.2,24.36,24.36,0,0,1-7.28,4.54A32.12,32.12,0,0,1,521.09,492.21ZM523,450.55a8.44,8.44,0,0,0-5.61,2.21,11.88,11.88,0,0,0-3,4.65,20.36,20.36,0,0,0-1.07,5.58,45,45,0,0,0,0,4.9c.26,4.16,1.12,7.19,2.56,9.06a6.5,6.5,0,0,0,5.87,2.58A7.46,7.46,0,0,0,527,477.1a14.39,14.39,0,0,0,3-5.22,25.62,25.62,0,0,0,1.22-6.26,42.55,42.55,0,0,0,.09-5.42,13.63,13.63,0,0,0-2.22-7.33C527.85,451.15,525.79,450.37,523,450.55Z" transform="translate(-87.45 -325.69)"/><path class="cls-1" d="M596.18,475.35a14.81,14.81,0,0,1-13.78,9.23,19.74,19.74,0,0,1-7.18-.79,13.46,13.46,0,0,1-5.73-3.54,18.84,18.84,0,0,1-4-6.45,31.93,31.93,0,0,1-1.88-9.54,52.47,52.47,0,0,1,.35-9.67,28.5,28.5,0,0,1,2.87-9.54,21,21,0,0,1,6.43-7.49q4.17-3.06,11-3.49a17.12,17.12,0,0,1,4.91.31,12.28,12.28,0,0,1,3.61,1.44,8.92,8.92,0,0,1,2.52,2.32,11.86,11.86,0,0,1,1.56,2.94,5.46,5.46,0,0,0,0-.71c0-.54,0-1.16,0-1.86s0-1.38,0-2,0-1.1,0-1.28c0-.64.42-1,1.18-1l4.35-.27q4.92-.31,7.28,1.59t2.71,7.58c0,.5.07,1.66.12,3.46s.07,4,.07,6.51,0,5.34-.09,8.42-.15,6.17-.27,9.28-.29,6.11-.49,9-.46,5.39-.76,7.56a23.7,23.7,0,0,1-1.88,6.39,17.61,17.61,0,0,1-4.21,5.68,22.51,22.51,0,0,1-7.3,4.26,38.15,38.15,0,0,1-11.13,2.12,35.8,35.8,0,0,1-8.82-.4,21.27,21.27,0,0,1-6.36-2.12,12,12,0,0,1-4-3.32,7.42,7.42,0,0,1-1.53-3.89,6.19,6.19,0,0,1,.57-3.18,6.59,6.59,0,0,1,1.85-2.3,9,9,0,0,1,2.62-1.44,10.05,10.05,0,0,1,2.76-.61,2.87,2.87,0,0,1,2.43.8l1.84,2a8.86,8.86,0,0,0,2.78,2,11.41,11.41,0,0,0,5.37.62q6.24-.39,8.47-5.14T596.18,475.35ZM588,471.59a8.18,8.18,0,0,0,5.25-1.95,10.82,10.82,0,0,0,2.74-4.07,15.68,15.68,0,0,0,1-4.82,38.28,38.28,0,0,0,0-4.27c-.24-3.79-1-6.46-2.26-8a6.09,6.09,0,0,0-5.41-2.09,7.66,7.66,0,0,0-5.37,2.24,12.07,12.07,0,0,0-2.7,4.68,20.69,20.69,0,0,0-1,5.29,37.48,37.48,0,0,0,0,4q.3,4.74,2.05,7T588,471.59Z" transform="translate(-87.45 -325.69)"/><path class="cls-1" d="M648.2,439.11c.09,1.33.09,3.19,0,5.61s-.14,4.92-.2,7.52-.12,5.05-.2,7.33-.09,3.94,0,4.95a7.51,7.51,0,0,0,2,5.06,5.88,5.88,0,0,0,4.71,1.56,5.48,5.48,0,0,0,4.18-2.31,15.54,15.54,0,0,0,2.51-5.48,47.16,47.16,0,0,0,1.29-7.54c.27-2.81.42-5.64.47-8.49s.06-5.63.05-8.33,0-5,.08-7a2.52,2.52,0,0,1,.49-1.36A1.84,1.84,0,0,1,665,430l3.41-.22a15.65,15.65,0,0,1,4.82.32,7,7,0,0,1,3,1.57,6.08,6.08,0,0,1,1.69,2.7,15,15,0,0,1,.67,3.81c.06.94.1,2.29.11,4s0,4.15-.07,7.23-.12,7-.17,11.7-.12,10.58-.19,17.56a7.75,7.75,0,0,1-.28,2.39c-.14.26-.65.42-1.54.48l-3.69.23a14.2,14.2,0,0,1-4.73-.37,8.75,8.75,0,0,1-3.09-1.52,5.74,5.74,0,0,1-1.76-2.36,11.16,11.16,0,0,1-.75-2.9,19.17,19.17,0,0,1-2.92,4.36,15.59,15.59,0,0,1-3.47,2.93,15.14,15.14,0,0,1-3.8,1.66,18.3,18.3,0,0,1-3.85.67,16.7,16.7,0,0,1-6.52-.78,14.37,14.37,0,0,1-5-2.87,13.62,13.62,0,0,1-3.28-4.55,16.41,16.41,0,0,1-1.4-5.81c-.06-.82-.09-2.16-.11-4s0-4,0-6.32,0-4.84.06-7.47,0-5.12,0-7.47,0-4.4.09-6.18.08-3,.1-3.81a4.24,4.24,0,0,1,.61-2.37,2.47,2.47,0,0,1,1.85-.73l3-.19a17.29,17.29,0,0,1,4.87.27,7.22,7.22,0,0,1,3.08,1.42,5.61,5.61,0,0,1,1.68,2.41A12.48,12.48,0,0,1,648.2,439.11Z" transform="translate(-87.45 -325.69)"/><path class="cls-1" d="M727.9,448.77c-.38,0-.8,0-1.28,0a10.3,10.3,0,0,1-1.38-.1,4.75,4.75,0,0,1-1.16-.31c-.33-.14-.5-.33-.52-.59,0-.82-.06-1.58,0-2.28s0-1.42,0-2.18a8.66,8.66,0,0,0-.79-3.37,2.22,2.22,0,0,0-2.35-1.19q-2.65.17-4.19,3.74c-1,2.37-1.55,5.88-1.58,10.5q0,3-.09,6.9t-.15,7.43q-.06,3.57-.08,6.33c0,1.83,0,3,0,3.6a1.65,1.65,0,0,1-.57,1.47,2.42,2.42,0,0,1-1.39.56l-3.41.21a15.67,15.67,0,0,1-4.82-.31,7.23,7.23,0,0,1-3.05-1.57,6.32,6.32,0,0,1-1.69-2.7,15.69,15.69,0,0,1-.66-3.81c-.06-.95-.1-2.29-.11-4s0-4.15.07-7.23.12-7,.17-11.71.12-10.57.19-17.55c0-1.84.61-2.8,1.81-2.87l3.7-.23a14.78,14.78,0,0,1,4.48.29,8,8,0,0,1,3,1.38,5.87,5.87,0,0,1,1.8,2.21,11.77,11.77,0,0,1,.88,2.71,15.06,15.06,0,0,1,2.47-3.91,15.85,15.85,0,0,1,3.1-2.76,12.48,12.48,0,0,1,3.42-1.64,14.86,14.86,0,0,1,3.29-.64,10.7,10.7,0,0,1,3.68.44,10.31,10.31,0,0,1,3.49,1.78,9.38,9.38,0,0,1,2.63,3.25,12.59,12.59,0,0,1,1.21,4.87,15.41,15.41,0,0,1-.46,4.88,12.6,12.6,0,0,1-1.93,4.16,10,10,0,0,1-3.28,3A10.11,10.11,0,0,1,727.9,448.77Z" transform="translate(-87.45 -325.69)"/><path class="cls-1" d="M771.89,436.13q-.06,3.62-.17,7.14c-.08,2.35-.14,4.57-.2,6.67s-.09,4-.08,5.61,0,2.92.1,3.8a6.29,6.29,0,0,0,.77,3.23,2.15,2.15,0,0,0,1.94.69,4,4,0,0,0,1.78-.49,11,11,0,0,0,1.37-.94l1.13-.93a2,2,0,0,1,1.16-.45,1.56,1.56,0,0,1,1.27.68c.41.48.68,1.64.79,3.47a11.58,11.58,0,0,1-2.32,8.41q-2.65,3.21-9.57,3.64t-10.28-2.54q-3.47-3-3.88-9.5c-.06-.95-.08-2.07-.07-3.37s0-3,.11-5.1.14-4.66.23-7.71.16-6.82.2-11.33l-5,.32c-.5,0-.81-.06-.92-.28a2.45,2.45,0,0,1-.2-1l0-4.85a19.74,19.74,0,0,1,.18-2.44,5.38,5.38,0,0,1,.81-2.19,5,5,0,0,1,1.94-1.64,9.31,9.31,0,0,1,3.47-.79c.37-1.16.79-2.55,1.26-4.16s.94-3.18,1.42-4.7a34.17,34.17,0,0,1,1.43-3.85c.47-1,.93-1.58,1.37-1.6l2.74-.17c2.66-.17,4.54.54,5.65,2.11a11,11,0,0,1,1.88,5.78c.08,1.26.1,3.13.07,5.61l9.94-.63c1-.06,1.54.35,1.6,1.24l-.06,5.13a8.09,8.09,0,0,1-1.28,4.69q-1.26,1.85-5.52,2.11Z" transform="translate(-87.45 -325.69)"/><path class="cls-1" d="M438.44,575.4a19.07,19.07,0,0,1-7.14-.89,15.21,15.21,0,0,1-6.13-3.8,20.77,20.77,0,0,1-4.43-6.94,33.36,33.36,0,0,1-2.12-10.43,54.35,54.35,0,0,1,0-6.13,43.19,43.19,0,0,1,.9-6.85,32.55,32.55,0,0,1,2.24-6.79,22.3,22.3,0,0,1,3.95-6,19.73,19.73,0,0,1,6-4.42,22.17,22.17,0,0,1,8.47-2,15.32,15.32,0,0,1,7.73,1.18,7.82,7.82,0,0,1,4,5.5c0-2.47,0-4.62,0-6.46s0-3.55,0-5.14,0-3.17,0-4.75,0-3.39,0-5.42a4.73,4.73,0,0,1,.32-2.5.85.85,0,0,1,.46-.26,7.72,7.72,0,0,1,1-.11l3.7-.24a14.8,14.8,0,0,1,4.77.37,8.08,8.08,0,0,1,3.15,1.61,6.54,6.54,0,0,1,1.77,2.51,10,10,0,0,1,.67,3q-.09,4.77-.13,8.71c0,2.63-.06,5.63-.1,9s-.08,6.84-.11,10.42-.06,7.13-.09,10.65-.09,6.76-.16,9.71-.11,5.49-.14,7.61-.05,3.54-.07,4.24a3.73,3.73,0,0,1-.38,1.54c-.17.27-.7.43-1.58.48l-3.41.22a20.19,20.19,0,0,1-3.76-.1,8.68,8.68,0,0,1-3.1-.95,5.52,5.52,0,0,1-2.13-2.05,7.78,7.78,0,0,1-.93-3.51,14.33,14.33,0,0,1-4.79,6.19A15.57,15.57,0,0,1,438.44,575.4Zm5.65-41.9a7.65,7.65,0,0,0-6.88,4.66q-2.06,4.37-1.62,11.46a35.92,35.92,0,0,0,.64,4.81,15.55,15.55,0,0,0,1.45,4.19,7.7,7.7,0,0,0,2.51,2.88,5.93,5.93,0,0,0,3.81.91q4.06-.25,6.57-4.41t2-12.67a33.37,33.37,0,0,0-.57-4.57,12.06,12.06,0,0,0-1.38-3.86,7.2,7.2,0,0,0-2.54-2.6A6.72,6.72,0,0,0,444.09,533.5Z" transform="translate(-87.45 -325.69)"/><path class="cls-1" d="M500.56,571.52a34.08,34.08,0,0,1-8.35-.53,19.81,19.81,0,0,1-7.61-3.13,19.27,19.27,0,0,1-5.78-6.49,24.46,24.46,0,0,1-2.75-10.57,49.86,49.86,0,0,1,0-5.71,37.1,37.1,0,0,1,1-6.91,36.28,36.28,0,0,1,2.59-7.15,23.88,23.88,0,0,1,4.68-6.52,24.76,24.76,0,0,1,7.3-4.92,29.76,29.76,0,0,1,10.5-2.37,26.62,26.62,0,0,1,8.4.62,14.87,14.87,0,0,1,5.69,2.73,11.7,11.7,0,0,1,3.31,4.31,15.67,15.67,0,0,1,1.29,5.43,14.59,14.59,0,0,1-1.29,7.5,16.15,16.15,0,0,1-4.23,5.35,22.56,22.56,0,0,1-6,3.56,49.13,49.13,0,0,1-6.62,2.17A46,46,0,0,1,496.7,550c-1.86.22-3.29.35-4.3.41a12.56,12.56,0,0,0,.74,3.52,9.12,9.12,0,0,0,1.76,3,7.89,7.89,0,0,0,2.88,2,9.13,9.13,0,0,0,4.22.59,7.67,7.67,0,0,0,3.79-1,8.86,8.86,0,0,0,2.11-1.94c.53-.7,1-1.33,1.36-1.89a2,2,0,0,1,1.6-.91,9.66,9.66,0,0,1,1.67.13,7.32,7.32,0,0,1,2.48.85,7.62,7.62,0,0,1,2.31,1.94,5.77,5.77,0,0,1,1.16,3.35,7,7,0,0,1-1.41,4.84,12.45,12.45,0,0,1-4.2,3.5,24.36,24.36,0,0,1-5.9,2.17A37.9,37.9,0,0,1,500.56,571.52Zm-.78-41.5a5.51,5.51,0,0,0-3.48,1.4,10.16,10.16,0,0,0-2.28,3.14,15.85,15.85,0,0,0-1.26,4.07c-.26,1.48-.44,2.88-.55,4.22a21.63,21.63,0,0,0,9.4-2.58c2.35-1.42,3.45-3.29,3.3-5.63a5.35,5.35,0,0,0-1.39-3.33A4.37,4.37,0,0,0,499.78,530Z" transform="translate(-87.45 -325.69)"/><path class="cls-1" d="M560.41,567.68c-3.92.24-6.79-.62-8.63-2.6s-2.9-5.36-3.2-10.16q-.08-1.14,0-2.85c0-1.14.05-2.62.1-4.43s.11-4,.2-6.71.15-5.91.2-9.71.08-8.28.11-13.41,0-11.1,0-17.88a4.68,4.68,0,0,1,.32-2.49,2.47,2.47,0,0,1,1.5-.38l3.69-.23a14.61,14.61,0,0,1,4.78.37,7.9,7.9,0,0,1,3.14,1.61,6.51,6.51,0,0,1,1.77,2.5,10,10,0,0,1,.67,3.05c.08,1.26.11,3.08.1,5.46s-.05,5.06-.11,8-.13,6.09-.18,9.33-.11,6.33-.18,9.28-.11,5.6-.12,7.95,0,4.12.09,5.31a5.38,5.38,0,0,0,1.12,3.45,5.16,5.16,0,0,0,2,1.35,9,9,0,0,0,2,.45c.6,0,.92.24.94.55a18.59,18.59,0,0,1-.22,4.15,9.85,9.85,0,0,1-1.47,3.8,8.7,8.7,0,0,1-3.2,2.87A13,13,0,0,1,560.41,567.68Z" transform="translate(-87.45 -325.69)"/><path class="cls-1" d="M574.4,554.26q-.54-8.53,6.84-13.84t22.3-6.62c0-.7,0-1.28,0-1.76s0-1.06-.07-1.75a9,9,0,0,0-1.43-4.76c-.84-1.15-2.45-1.66-4.85-1.51a7.9,7.9,0,0,0-3.19.77,5.16,5.16,0,0,0-1.89,1.69,8.36,8.36,0,0,0-1.08,2.49,30.67,30.67,0,0,0-.65,3.18,1.37,1.37,0,0,1-.79,1.14,6.56,6.56,0,0,1-2.07.37q-9.66.6-10.11-6.69a11.94,11.94,0,0,1,1-5.67,13,13,0,0,1,3.79-4.85,21.31,21.31,0,0,1,6.57-3.5,35.65,35.65,0,0,1,9.4-1.73q10.51-.66,15.52,3.4t5.51,12c0,.69,0,2,0,3.75s-.11,3.72-.21,5.72-.17,3.9-.21,5.67-.05,3,0,3.71a5.21,5.21,0,0,0,1.06,3.31,4.44,4.44,0,0,0,2,1.25,16.79,16.79,0,0,0,2,.45.93.93,0,0,1,.91.89,17.61,17.61,0,0,1-.3,4.3,12.29,12.29,0,0,1-1.6,4.09,9.62,9.62,0,0,1-3.32,3.16,11.87,11.87,0,0,1-5.38,1.47q-4.55.29-7-1.75a11.08,11.08,0,0,1-3.41-5.87,22.21,22.21,0,0,1-5.56,6.15,16.73,16.73,0,0,1-9.36,3,20.7,20.7,0,0,1-5.39-.33,11.3,11.3,0,0,1-4.5-1.9,10.67,10.67,0,0,1-3.18-3.75A14.17,14.17,0,0,1,574.4,554.26Zm28.78-12.64a30.29,30.29,0,0,0-4.81.68,17.64,17.64,0,0,0-4.14,1.45,8.06,8.06,0,0,0-2.85,2.31,4.88,4.88,0,0,0-.94,3.3A3.3,3.3,0,0,0,592,552.3a5.62,5.62,0,0,0,3,.67,7.65,7.65,0,0,0,5.56-3.06,12.76,12.76,0,0,0,1.83-3.49A14.66,14.66,0,0,0,603.18,541.62Z" transform="translate(-87.45 -325.69)"/><path class="cls-1" d="M673.17,548.08a13.68,13.68,0,0,0,4.74-1.05,19.42,19.42,0,0,0,3.44-1.93c1-.69,1.79-1.31,2.45-1.86a3.29,3.29,0,0,1,1.85-.88c1.45-.09,2.23.81,2.35,2.7a8.39,8.39,0,0,1-.17,1.87,22.11,22.11,0,0,1-.6,2.51c-.26.87-.54,1.7-.84,2.48a8.1,8.1,0,0,1-.89,1.76q-.45.51-1.56,1.62a15.67,15.67,0,0,1-3.05,2.28,26.87,26.87,0,0,1-4.52,2.14,20,20,0,0,1-5.82,1.17,27.43,27.43,0,0,1-7.5-.62,18.14,18.14,0,0,1-7.2-3.36,20.32,20.32,0,0,1-5.62-7,28.32,28.32,0,0,1-2.75-11.38,52.56,52.56,0,0,1,0-5.65,33.79,33.79,0,0,1,1-6.62,37.45,37.45,0,0,1,2.38-6.8,20.55,20.55,0,0,1,4.32-6.12,23,23,0,0,1,6.8-4.56,27.85,27.85,0,0,1,9.7-2.18,26.49,26.49,0,0,1,8.08.59,16.32,16.32,0,0,1,5.72,2.59,11.83,11.83,0,0,1,3.53,4.11,13,13,0,0,1,1.43,5.23q.32,5.11-2.75,7.73t-8.94,3a5.3,5.3,0,0,1-2-.11c-.36-.14-.55-.49-.59-1.06-.09-1.51-.21-2.87-.35-4.06a11,11,0,0,0-.71-3,3.45,3.45,0,0,0-3.9-2.32,6.09,6.09,0,0,0-4.57,2.18,12.38,12.38,0,0,0-2.36,4.76,23.65,23.65,0,0,0-.79,5.61c0,1.91,0,3.49.06,4.75q.42,6.74,2.71,9.24C667.76,547.53,670.08,548.28,673.17,548.08Z" transform="translate(-87.45 -325.69)"/><path class="cls-1" d="M694.57,546.74q-.52-8.52,6.84-13.83t22.31-6.62c0-.7,0-1.29,0-1.76s0-1.06-.06-1.76a9,9,0,0,0-1.44-4.75c-.84-1.16-2.45-1.66-4.85-1.51a7.65,7.65,0,0,0-3.18.77,5.2,5.2,0,0,0-1.9,1.69,8.36,8.36,0,0,0-1.08,2.49c-.25,1-.47,2-.65,3.18a1.35,1.35,0,0,1-.79,1.14,6.56,6.56,0,0,1-2.07.37q-9.66.6-10.11-6.69a12.07,12.07,0,0,1,1-5.67,13.12,13.12,0,0,1,3.79-4.85,21.37,21.37,0,0,1,6.58-3.5,35.09,35.09,0,0,1,9.4-1.73q10.5-.66,15.52,3.4t5.5,12q.06,1,0,3.75c0,1.81-.12,3.72-.22,5.72s-.17,3.89-.21,5.67,0,3,0,3.71a5.21,5.21,0,0,0,1.06,3.31,4.52,4.52,0,0,0,2,1.25,16.79,16.79,0,0,0,2,.45.93.93,0,0,1,.91.89,16.68,16.68,0,0,1-.3,4.3,12.08,12.08,0,0,1-1.6,4.09,9.51,9.51,0,0,1-3.32,3.15,11.74,11.74,0,0,1-5.37,1.48c-3,.19-5.35-.39-7-1.75a11.14,11.14,0,0,1-3.41-5.87,21.89,21.89,0,0,1-5.56,6.14,16.63,16.63,0,0,1-9.36,3.06,20.73,20.73,0,0,1-5.39-.33,11.25,11.25,0,0,1-4.49-1.9A10.59,10.59,0,0,1,696,552.5,14.18,14.18,0,0,1,694.57,546.74Zm28.78-12.63a30.45,30.45,0,0,0-4.81.68,17.2,17.2,0,0,0-4.14,1.45,8.06,8.06,0,0,0-2.85,2.31,4.81,4.81,0,0,0-.93,3.29,3.28,3.28,0,0,0,1.56,2.95,5.54,5.54,0,0,0,3,.66,7.38,7.38,0,0,0,3-.85,7.57,7.57,0,0,0,2.58-2.2,12.9,12.9,0,0,0,1.82-3.49A14.4,14.4,0,0,0,723.35,534.11Z" transform="translate(-87.45 -325.69)"/><path class="cls-1" d="M770.21,500.47q8-.5,12,2.43a10.14,10.14,0,0,1,4.3,7.86,7.85,7.85,0,0,1-2.21,6.51c-1.65,1.56-4.11,2.45-7.39,2.65a3.83,3.83,0,0,1-1.82-.17,1.11,1.11,0,0,1-.54-1,16.35,16.35,0,0,0-.26-1.94,6.24,6.24,0,0,0-.8-2,4.23,4.23,0,0,0-1.71-1.55,5.84,5.84,0,0,0-3.12-.47,6.65,6.65,0,0,0-4.18,1.54,3.91,3.91,0,0,0-1.41,3.27,3.71,3.71,0,0,0,1.85,3.07,21.28,21.28,0,0,0,4.31,2q2.57.88,5.58,1.79a22.83,22.83,0,0,1,5.62,2.55,15.31,15.31,0,0,1,4.45,4.23A13.08,13.08,0,0,1,787,538a14.38,14.38,0,0,1-4.13,11.48q-4.56,4.65-14.21,5.26a49,49,0,0,1-6.14,0,42.6,42.6,0,0,1-6.66-.91,17.07,17.07,0,0,1-5.41-2.09,4.54,4.54,0,0,1-2.37-3.65,8.57,8.57,0,0,1,.2-2.11,8.73,8.73,0,0,1,.9-2.43,7.64,7.64,0,0,1,1.58-2,3.78,3.78,0,0,1,2.37-1,3.93,3.93,0,0,1,2.11.44c.66.34,1.43.68,2.3,1a21.64,21.64,0,0,0,3.25,1,18,18,0,0,0,5.05.25,14.54,14.54,0,0,0,4.18-.83,2.44,2.44,0,0,0,1.69-2.67,3.4,3.4,0,0,0-1.7-2.8,18.43,18.43,0,0,0-4-1.79l-5.14-1.73a20.82,20.82,0,0,1-5.2-2.57,14.35,14.35,0,0,1-4.13-4.35,15.18,15.18,0,0,1-2-7.15A16.16,16.16,0,0,1,751,511a16.52,16.52,0,0,1,4.68-5.76,20.8,20.8,0,0,1,6.78-3.41A34.35,34.35,0,0,1,770.21,500.47Z" transform="translate(-87.45 -325.69)"/><path class="cls-1" d="M440.92,652.79c2.32-1.22,4.11-2.95,4.18-5.87.1-4.5-3.64-8.65-6.67-11.57a89.46,89.46,0,0,0-14.1-10.52C409.25,615.18,392,608.77,374.59,605a167.81,167.81,0,0,0-106.3,11.37c-101.9,46.53-159.84,13-159.85,13,1.87,1.08,3.62,3.86,5.37,5.27a72.54,72.54,0,0,0,19.35,10.8c31,12.13,66.65,10.64,99,6.35,15.54-2.06,30.65-6,46.35-6.78a182.12,182.12,0,0,1,40.78,2.54c18.59,3.22,35,14.6,53.82,16.58A129.85,129.85,0,0,0,430,657.29q5.11-1.81,10-4.06Z" transform="translate(-87.45 -325.69)"/><path class="cls-1" d="M535.23,616.34c.73-1.59-6.18-.63-6.77-.58-8,.55-15.84.1-23.8-.1-20.19-.53-40-5.5-59.11-11.6-11.41-3.64-22.68-7.7-34-11.63-17.28-6-34.85-11.74-53.11-13.78-33.26-3.7-67,5.83-94.42,24.81-6.35,4.39-12.77,9.27-18,15,2-2.17,7.49-3.42,10.09-4.46a220.78,220.78,0,0,1,28-9c36.1-9.08,74-9.71,110.08-.13a206.39,206.39,0,0,1,33.09,11.86c10.81,5,20.68,11.56,31.52,16.49,22.4,10.18,54,11.63,71.25-8.8A35.61,35.61,0,0,0,535.23,616.34Z" transform="translate(-87.45 -325.69)"/><path class="cls-1" d="M404.52,564.64s-28.8-35.7-11.21-45.53c0,0,12.76-5.17.35-10s-28.46-4.83-32.08,5.69S371.41,553.09,404.52,564.64Z" transform="translate(-87.45 -325.69)"/><path class="cls-1" d="M348,411.51c.29,0,1,.92,1.14,1.11,1,1,2,2.1,2.93,3.2a53.41,53.41,0,0,1,9,14.08,33.69,33.69,0,0,1,2.64,8.87c.33,3-.18,6.08,1,8.88,1.81,4.2,7.07,6.29,11.4,5.6a11.33,11.33,0,0,0,6.3-3.55,8.65,8.65,0,0,0,2.11-6.38c-.1-12.17-7.19-22.43-18.18-27.42-.51-.23-1-.45-1.54-.66A58.42,58.42,0,0,0,348,411.51Z" transform="translate(-87.45 -325.69)"/><path class="cls-1" d="M404.52,581.71s-13.62-23.8-88.12-27.93S255.87,474.11,273,465.83c0,0,31-35.18,63.11,14,0,0,23.8-45.53-21.21-71.39,0,0,42.94-25.87-3.62-47.08,0,0,12.93-18.62-10.87-28.45,0,0-82.25-27.42-131.91,24.83s-81.74,149.51,0,193.48S357.1,550.15,404.52,581.71Z" transform="translate(-87.45 -325.69)"/><path class="cls-1" d="M279.15,587.4s-45,25.87-101.39,8.8-74.5-46.56-74.5-79.15,16-20.18,26.39,6.2S166.89,594.13,279.15,587.4Z" transform="translate(-87.45 -325.69)"/><circle class="cls-1" cx="12.2" cy="144.51" r="9.63"/><circle class="cls-1" cx="9.63" cy="295.74" r="9.63"/><circle class="cls-1" cx="461.08" cy="285.35" r="8.14"/><circle class="cls-1" cx="260.5" cy="65.01" r="4.95"/><circle class="cls-1" cx="255.55" cy="35.9" r="10.06"/></g></svg>